<svg width="20" height="20" viewBox="0 0 20 20" fill="none" xmlns="http://www.w3.org/2000/svg">
<path d="M9.40796 7.05006L4.69962 11.7667C4.62152 11.8442 4.55952 11.9364 4.51721 12.0379C4.47491 12.1395 4.45313 12.2484 4.45313 12.3584C4.45313 12.4684 4.47491 12.5773 4.51721 12.6789C4.55952 12.7804 4.62152 12.8726 4.69962 12.9501C4.85576 13.1053 5.06697 13.1924 5.28712 13.1924C5.50728 13.1924 5.71849 13.1053 5.87462 12.9501L10.0413 8.82506L14.1663 12.9501C14.3224 13.1053 14.5336 13.1924 14.7538 13.1924C14.9739 13.1924 15.1852 13.1053 15.3413 12.9501C15.42 12.8729 15.4827 12.7808 15.5256 12.6793C15.5685 12.5777 15.5908 12.4686 15.5913 12.3584C15.5908 12.2481 15.5685 12.1391 15.5256 12.0375C15.4827 11.9359 15.42 11.8439 15.3413 11.7667L10.633 7.05006C10.5549 6.96547 10.4602 6.89796 10.3548 6.85179C10.2494 6.80562 10.1355 6.78178 10.0205 6.78178C9.90537 6.78178 9.79153 6.80562 9.68612 6.85179C9.5807 6.89796 9.48599 6.96547 9.40796 7.05006Z" fill="#EB1537"/>
</svg>
