<svg width="20" height="21" viewBox="0 0 20 21" fill="none" xmlns="http://www.w3.org/2000/svg">
<path fill-rule="evenodd" clip-rule="evenodd" d="M5.6665 2.16669C3.45736 2.16669 1.6665 3.95755 1.6665 6.16669V14.8334C1.6665 17.0425 3.45737 18.8334 5.66651 18.8334H14.3332C16.5423 18.8334 18.3332 17.0425 18.3332 14.8334V6.16669C18.3332 3.95755 16.5423 2.16669 14.3332 2.16669H5.6665ZM13.1139 7.40871L8.69727 11.8254L6.9306 10.0587C6.8559 9.97147 6.76396 9.90062 6.66058 9.8506C6.55719 9.80058 6.44458 9.77248 6.32981 9.76804C6.21505 9.76361 6.1006 9.78295 5.99367 9.82484C5.88673 9.86674 5.7896 9.93029 5.70839 10.0115C5.62718 10.0927 5.56363 10.1898 5.52174 10.2968C5.47984 10.4037 5.4605 10.5182 5.46494 10.6329C5.46937 10.7477 5.49748 10.8603 5.5475 10.9637C5.59752 11.0671 5.66837 11.159 5.7556 11.2337L8.11393 13.592C8.26915 13.746 8.47865 13.8328 8.69727 13.8337C8.80694 13.8343 8.91566 13.8133 9.01719 13.7719C9.11872 13.7304 9.21107 13.6693 9.28894 13.592L14.2889 8.59204C14.367 8.51457 14.429 8.42241 14.4713 8.32086C14.5137 8.21931 14.5354 8.11039 14.5354 8.00038C14.5354 7.89037 14.5137 7.78144 14.4713 7.67989C14.429 7.57835 14.367 7.48618 14.2889 7.40871C14.1328 7.2535 13.9216 7.16638 13.7014 7.16638C13.4813 7.16638 13.2701 7.2535 13.1139 7.40871Z" fill="#EB1537"/>
</svg>
