<svg width="21" height="20" viewBox="0 0 21 20" fill="none" xmlns="http://www.w3.org/2000/svg">
<path d="M10.4997 1.66675C8.73156 1.66675 7.03587 2.36913 5.78563 3.61937C4.53539 4.86961 3.83301 6.5653 3.83301 8.33342C3.83301 12.8334 9.70801 17.9167 9.95801 18.1334C10.109 18.2625 10.301 18.3335 10.4997 18.3335C10.6983 18.3335 10.8904 18.2625 11.0413 18.1334C11.333 17.9167 17.1663 12.8334 17.1663 8.33342C17.1663 6.5653 16.464 4.86961 15.2137 3.61937C13.9635 2.36913 12.2678 1.66675 10.4997 1.66675ZM10.4997 16.3751C8.72467 14.7084 5.49967 11.1167 5.49967 8.33342C5.49967 7.00733 6.02646 5.73556 6.96414 4.79788C7.90182 3.8602 9.17359 3.33341 10.4997 3.33341C11.8258 3.33341 13.0975 3.8602 14.0352 4.79788C14.9729 5.73556 15.4997 7.00733 15.4997 8.33342C15.4997 11.1167 12.2747 14.7167 10.4997 16.3751ZM10.4997 5.00008C9.8404 5.00008 9.19594 5.19558 8.64777 5.56185C8.09961 5.92812 7.67237 6.44872 7.42008 7.0578C7.16778 7.66689 7.10177 8.33711 7.23039 8.98372C7.35901 9.63032 7.67648 10.2243 8.14265 10.6904C8.60883 11.1566 9.20277 11.4741 9.84937 11.6027C10.496 11.7313 11.1662 11.6653 11.7753 11.413C12.3844 11.1607 12.905 10.7335 13.2712 10.1853C13.6375 9.63715 13.833 8.99269 13.833 8.33342C13.833 7.44936 13.4818 6.60151 12.8567 5.97639C12.2316 5.35127 11.3837 5.00008 10.4997 5.00008ZM10.4997 10.0001C10.17 10.0001 9.84781 9.90233 9.57372 9.7192C9.29964 9.53606 9.08602 9.27576 8.95988 8.97122C8.83373 8.66668 8.80072 8.33157 8.86503 8.00826C8.92934 7.68496 9.08808 7.38799 9.32116 7.1549C9.55425 6.92182 9.85122 6.76308 10.1745 6.69877C10.4978 6.63446 10.8329 6.66747 11.1375 6.79362C11.442 6.91976 11.7023 7.13338 11.8855 7.40746C12.0686 7.68155 12.1663 8.00378 12.1663 8.33342C12.1663 8.77544 11.9907 9.19937 11.6782 9.51193C11.3656 9.82449 10.9417 10.0001 10.4997 10.0001Z" fill="white"/>
</svg>
