<svg width="102" height="30" viewBox="0 0 102 30" fill="none" xmlns="http://www.w3.org/2000/svg">
<path d="M0 18.8909V18.8103C0 12.6348 5.05124 7.62137 11.8519 7.62137C18.6128 7.62137 23.62 12.5547 23.62 18.7302V18.8103C23.62 24.9857 18.571 30 11.77 30C5.01114 30 0 25.0642 0 18.8909ZM26.347 3.04948C26.347 1.36637 27.7319 0 29.4418 0C31.1531 0 32.5358 1.36637 32.5358 3.04948V26.7111C32.5358 28.395 31.1531 29.7589 29.4418 29.7589C27.7319 29.7589 26.347 28.395 26.347 26.7111V3.04948ZM35.2641 18.8909V18.8103C35.2641 12.6743 40.0285 7.62137 46.7075 7.62137C50.0057 7.62137 52.3271 8.50448 54.1599 10.0269C54.5684 10.3472 55.1365 11.0713 55.1365 12.1129C55.1365 13.6361 53.8753 14.8407 52.3271 14.8407C51.5123 14.8407 50.9021 14.5187 50.5353 14.2384C49.4356 13.3964 48.296 12.8745 46.668 12.8745C43.5717 12.8745 41.3717 15.5628 41.3717 18.7302V18.8103C41.3717 22.0994 43.5316 24.7466 46.9108 24.7466C48.5411 24.7466 49.8024 24.183 50.984 23.2631C51.3104 23.0193 51.9206 22.6995 52.6535 22.6995C54.1184 22.6995 55.2605 23.8632 55.2605 25.3077C55.2605 26.1108 54.8931 26.7503 54.3634 27.233C52.5321 28.875 50.2106 30 46.6262 30C40.0703 30 35.2641 25.0269 35.2641 18.8909ZM58.3533 3.04948C58.3533 1.36637 59.7383 0 61.4479 0C63.1595 0 64.5419 1.36637 64.5419 3.04948V11.0696C65.9672 9.26609 67.7999 7.62164 70.9366 7.62164C75.6191 7.62164 78.3488 10.6697 78.3488 15.6006V26.7111C78.3488 28.395 76.9619 29.7589 75.2526 29.7589C73.5427 29.7589 72.1583 28.395 72.1583 26.7111V17.5259C72.1583 14.6391 70.7731 13.1551 68.4118 13.1551C66.0483 13.1551 64.5419 14.6391 64.5419 17.5259V26.7111C64.5419 28.395 63.1595 29.7589 61.4479 29.7589C59.7383 29.7589 58.3533 28.395 58.3533 26.7111V3.04948ZM81.198 23.3407V23.2623C81.198 18.5689 84.8226 16.4045 89.9935 16.4045C92.1911 16.4045 93.7812 16.7657 95.3269 17.2857V16.9261C95.3269 14.3986 93.7392 12.9957 90.6446 12.9957C88.9333 12.9957 87.5481 13.2349 86.369 13.598C86.0017 13.7179 85.7572 13.7573 85.472 13.7573C84.0475 13.7573 82.9074 12.6737 82.9074 11.2709C82.9074 10.1876 83.5989 9.26582 84.5758 8.90407C86.5297 8.18195 88.6479 7.78181 91.5414 7.78181C94.9208 7.78181 97.3637 8.66492 98.9121 10.1876C100.54 11.7926 101.273 14.1594 101.273 17.0457V26.832C101.273 28.4768 99.9303 29.76 98.2602 29.76C96.467 29.76 95.2854 28.5157 95.2854 27.2325V27.1927C93.7813 28.8355 91.7026 29.9188 88.6882 29.9188C84.5758 29.9188 81.198 27.5937 81.198 23.3407ZM95.4087 21.9379V20.8549C94.351 20.376 92.9661 20.054 91.4595 20.054C88.8116 20.054 87.1833 21.0962 87.1833 23.021V23.1016C87.1833 24.746 88.5682 25.7079 90.5633 25.7079C93.454 25.7079 95.4087 24.1457 95.4087 21.9379ZM17.5125 18.8909V18.8103C17.5125 15.6434 15.1918 12.8745 11.77 12.8745C8.2274 12.8745 6.10921 15.5628 6.10921 18.7302V18.8103C6.10921 21.9777 8.43069 24.7466 11.8519 24.7466C15.3968 24.7466 17.5125 22.0583 17.5125 18.8909Z" fill="white"/>
</svg>
