<svg width="80" height="16" viewBox="0 0 80 16" fill="none" xmlns="http://www.w3.org/2000/svg">
<path d="M8.00016 2.66663L6.00016 5.99996L2.3335 6.66663L5.00016 9.66663L4.3335 13.6666L8.00016 11.6666L11.6668 13.6666L11.0002 9.66663L13.6668 6.66663L9.66683 5.99996L8.00016 2.66663Z" fill="#FDC500"/>
<path d="M14.6665 6.44664C14.6244 6.3247 14.5478 6.21759 14.446 6.13831C14.3443 6.05903 14.2217 6.01097 14.0932 5.99997L10.2998 5.44664L8.59982 1.99997C8.54523 1.88726 8.46 1.7922 8.35388 1.72569C8.24777 1.65918 8.12506 1.6239 7.99982 1.6239C7.87458 1.6239 7.75188 1.65918 7.64576 1.72569C7.53965 1.7922 7.45441 1.88726 7.39982 1.99997L5.69982 5.43997L1.90649 5.99997C1.7831 6.01751 1.6671 6.06928 1.57166 6.14941C1.47621 6.22954 1.40513 6.33482 1.36649 6.45331C1.33112 6.56909 1.32794 6.69232 1.35731 6.80977C1.38667 6.92722 1.44746 7.03446 1.53316 7.11997L4.28649 9.78664L3.61982 13.5733C3.59602 13.6983 3.60848 13.8275 3.65574 13.9456C3.70299 14.0637 3.78306 14.1659 3.88649 14.24C3.9873 14.312 4.10621 14.3546 4.22985 14.3628C4.3535 14.3711 4.477 14.3447 4.58649 14.2866L7.99982 12.5066L11.3998 14.2933C11.4934 14.3461 11.5991 14.3737 11.7065 14.3733C11.8477 14.3738 11.9854 14.3295 12.0998 14.2466C12.2033 14.1725 12.2833 14.0704 12.3306 13.9523C12.3778 13.8341 12.3903 13.705 12.3665 13.58L11.6998 9.79331L14.4532 7.12664C14.5494 7.04509 14.6206 6.93791 14.6583 6.81754C14.6961 6.69717 14.6989 6.56856 14.6665 6.44664ZM10.5665 9.11331C10.4883 9.18893 10.4298 9.28254 10.3961 9.38596C10.3624 9.48938 10.3545 9.59947 10.3732 9.70664L10.8532 12.5L8.34649 11.1666C8.25003 11.1153 8.14243 11.0884 8.03316 11.0884C7.92388 11.0884 7.81628 11.1153 7.71982 11.1666L5.21316 12.5L5.69316 9.70664C5.71178 9.59947 5.7039 9.48938 5.6702 9.38596C5.6365 9.28254 5.57801 9.18893 5.49982 9.11331L3.49982 7.11331L6.30649 6.70664C6.41449 6.69162 6.51715 6.65034 6.60549 6.58641C6.69382 6.52248 6.76513 6.43787 6.81316 6.33997L7.99982 3.79997L9.25316 6.34664C9.30118 6.44453 9.37249 6.52915 9.46082 6.59308C9.54916 6.657 9.65182 6.69829 9.75982 6.71331L12.5665 7.11997L10.5665 9.11331Z" fill="#FDC500"/>
<path d="M24.0002 2.66663L22.0002 5.99996L18.3335 6.66663L21.0002 9.66663L20.3335 13.6666L24.0002 11.6666L27.6668 13.6666L27.0002 9.66663L29.6668 6.66663L25.6668 5.99996L24.0002 2.66663Z" fill="#FDC500"/>
<path d="M30.6665 6.44664C30.6244 6.3247 30.5478 6.21759 30.446 6.13831C30.3443 6.05903 30.2217 6.01097 30.0932 5.99997L26.2998 5.44664L24.5998 1.99997C24.5452 1.88726 24.46 1.7922 24.3539 1.72569C24.2478 1.65918 24.1251 1.6239 23.9998 1.6239C23.8746 1.6239 23.7519 1.65918 23.6458 1.72569C23.5396 1.7922 23.4544 1.88726 23.3998 1.99997L21.6998 5.43997L17.9065 5.99997C17.7831 6.01751 17.6671 6.06928 17.5717 6.14941C17.4762 6.22954 17.4051 6.33482 17.3665 6.45331C17.3311 6.56909 17.3279 6.69232 17.3573 6.80977C17.3867 6.92722 17.4475 7.03446 17.5332 7.11997L20.2865 9.78664L19.6198 13.5733C19.596 13.6983 19.6085 13.8275 19.6557 13.9456C19.703 14.0637 19.7831 14.1659 19.8865 14.24C19.9873 14.312 20.1062 14.3546 20.2299 14.3628C20.3535 14.3711 20.477 14.3447 20.5865 14.2866L23.9998 12.5066L27.3998 14.2933C27.4934 14.3461 27.5991 14.3737 27.7065 14.3733C27.8477 14.3738 27.9854 14.3295 28.0998 14.2466C28.2033 14.1725 28.2833 14.0704 28.3306 13.9523C28.3778 13.8341 28.3903 13.705 28.3665 13.58L27.6998 9.79331L30.4532 7.12664C30.5494 7.04509 30.6206 6.93791 30.6583 6.81754C30.6961 6.69717 30.6989 6.56856 30.6665 6.44664ZM26.5665 9.11331C26.4883 9.18893 26.4298 9.28254 26.3961 9.38596C26.3624 9.48938 26.3545 9.59947 26.3732 9.70664L26.8532 12.5L24.3465 11.1666C24.25 11.1153 24.1424 11.0884 24.0332 11.0884C23.9239 11.0884 23.8163 11.1153 23.7198 11.1666L21.2132 12.5L21.6932 9.70664C21.7118 9.59947 21.7039 9.48938 21.6702 9.38596C21.6365 9.28254 21.578 9.18893 21.4998 9.11331L19.4998 7.11331L22.3065 6.70664C22.4145 6.69162 22.5172 6.65034 22.6055 6.58641C22.6938 6.52248 22.7651 6.43787 22.8132 6.33997L23.9998 3.79997L25.2532 6.34664C25.3012 6.44453 25.3725 6.52915 25.4608 6.59308C25.5492 6.657 25.6518 6.69829 25.7598 6.71331L28.5665 7.11997L26.5665 9.11331Z" fill="#FDC500"/>
<path d="M40.0002 2.66663L38.0002 5.99996L34.3335 6.66663L37.0002 9.66663L36.3335 13.6666L40.0002 11.6666L43.6668 13.6666L43.0002 9.66663L45.6668 6.66663L41.6668 5.99996L40.0002 2.66663Z" fill="#FDC500"/>
<path d="M46.6665 6.44664C46.6244 6.3247 46.5478 6.21759 46.446 6.13831C46.3443 6.05903 46.2217 6.01097 46.0932 5.99997L42.2998 5.44664L40.5998 1.99997C40.5452 1.88726 40.46 1.7922 40.3539 1.72569C40.2478 1.65918 40.1251 1.6239 39.9998 1.6239C39.8746 1.6239 39.7519 1.65918 39.6458 1.72569C39.5396 1.7922 39.4544 1.88726 39.3998 1.99997L37.6998 5.43997L33.9065 5.99997C33.7831 6.01751 33.6671 6.06928 33.5717 6.14941C33.4762 6.22954 33.4051 6.33482 33.3665 6.45331C33.3311 6.56909 33.3279 6.69232 33.3573 6.80977C33.3867 6.92722 33.4475 7.03446 33.5332 7.11997L36.2865 9.78664L35.6198 13.5733C35.596 13.6983 35.6085 13.8275 35.6557 13.9456C35.703 14.0637 35.7831 14.1659 35.8865 14.24C35.9873 14.312 36.1062 14.3546 36.2299 14.3628C36.3535 14.3711 36.477 14.3447 36.5865 14.2866L39.9998 12.5066L43.3998 14.2933C43.4934 14.3461 43.5991 14.3737 43.7065 14.3733C43.8477 14.3738 43.9854 14.3295 44.0998 14.2466C44.2033 14.1725 44.2833 14.0704 44.3306 13.9523C44.3778 13.8341 44.3903 13.705 44.3665 13.58L43.6998 9.79331L46.4532 7.12664C46.5494 7.04509 46.6206 6.93791 46.6583 6.81754C46.6961 6.69717 46.6989 6.56856 46.6665 6.44664ZM42.5665 9.11331C42.4883 9.18893 42.4298 9.28254 42.3961 9.38596C42.3624 9.48938 42.3545 9.59947 42.3732 9.70664L42.8532 12.5L40.3465 11.1666C40.25 11.1153 40.1424 11.0884 40.0332 11.0884C39.9239 11.0884 39.8163 11.1153 39.7198 11.1666L37.2132 12.5L37.6932 9.70664C37.7118 9.59947 37.7039 9.48938 37.6702 9.38596C37.6365 9.28254 37.578 9.18893 37.4998 9.11331L35.4998 7.11331L38.3065 6.70664C38.4145 6.69162 38.5172 6.65034 38.6055 6.58641C38.6938 6.52248 38.7651 6.43787 38.8132 6.33997L39.9998 3.79997L41.2532 6.34664C41.3012 6.44453 41.3725 6.52915 41.4608 6.59308C41.5492 6.657 41.6518 6.69829 41.7598 6.71331L44.5665 7.11997L42.5665 9.11331Z" fill="#FDC500"/>
<path d="M62.6665 6.44664C62.6244 6.3247 62.5478 6.21759 62.446 6.13831C62.3443 6.05903 62.2217 6.01097 62.0932 5.99997L58.2998 5.44664L56.5998 1.99997C56.5452 1.88726 56.46 1.7922 56.3539 1.72569C56.2478 1.65918 56.1251 1.6239 55.9998 1.6239C55.8746 1.6239 55.7519 1.65918 55.6458 1.72569C55.5396 1.7922 55.4544 1.88726 55.3998 1.99997L53.6998 5.43997L49.9065 5.99997C49.7831 6.01751 49.6671 6.06928 49.5717 6.14941C49.4762 6.22954 49.4051 6.33482 49.3665 6.45331C49.3311 6.56909 49.3279 6.69232 49.3573 6.80977C49.3867 6.92722 49.4475 7.03446 49.5332 7.11997L52.2865 9.78664L51.6198 13.5733C51.596 13.6983 51.6085 13.8275 51.6557 13.9456C51.703 14.0637 51.7831 14.1659 51.8865 14.24C51.9873 14.312 52.1062 14.3546 52.2299 14.3628C52.3535 14.3711 52.477 14.3447 52.5865 14.2866L55.9998 12.5066L59.3998 14.2933C59.4934 14.3461 59.5991 14.3737 59.7065 14.3733C59.8477 14.3738 59.9854 14.3295 60.0998 14.2466C60.2033 14.1725 60.2833 14.0704 60.3306 13.9523C60.3778 13.8341 60.3903 13.705 60.3665 13.58L59.6998 9.79331L62.4532 7.12664C62.5494 7.04509 62.6206 6.93791 62.6583 6.81754C62.6961 6.69717 62.6989 6.56856 62.6665 6.44664ZM58.5665 9.11331C58.4883 9.18893 58.4298 9.28254 58.3961 9.38596C58.3624 9.48938 58.3545 9.59947 58.3732 9.70664L58.8532 12.5L56.3465 11.1666C56.25 11.1153 56.1424 11.0884 56.0332 11.0884C55.9239 11.0884 55.8163 11.1153 55.7198 11.1666L53.2132 12.5L53.6932 9.70664C53.7118 9.59947 53.7039 9.48938 53.6702 9.38596C53.6365 9.28254 53.578 9.18893 53.4998 9.11331L51.4998 7.11331L54.3065 6.70664C54.4145 6.69162 54.5172 6.65034 54.6055 6.58641C54.6938 6.52248 54.7651 6.43787 54.8132 6.33997L55.9998 3.79997L57.2532 6.34664C57.3012 6.44453 57.3725 6.52915 57.4608 6.59308C57.5492 6.657 57.6518 6.69829 57.7598 6.71331L60.5665 7.11997L58.5665 9.11331Z" fill="#FDC500"/>
<path d="M78.6665 6.44664C78.6244 6.3247 78.5478 6.21759 78.446 6.13831C78.3443 6.05903 78.2217 6.01097 78.0932 5.99997L74.2998 5.44664L72.5998 1.99997C72.5452 1.88726 72.46 1.7922 72.3539 1.72569C72.2478 1.65918 72.1251 1.6239 71.9998 1.6239C71.8746 1.6239 71.7519 1.65918 71.6458 1.72569C71.5396 1.7922 71.4544 1.88726 71.3998 1.99997L69.6998 5.43997L65.9065 5.99997C65.7831 6.01751 65.6671 6.06928 65.5717 6.14941C65.4762 6.22954 65.4051 6.33482 65.3665 6.45331C65.3311 6.56909 65.3279 6.69232 65.3573 6.80977C65.3867 6.92722 65.4475 7.03446 65.5332 7.11997L68.2865 9.78664L67.6198 13.5733C67.596 13.6983 67.6085 13.8275 67.6557 13.9456C67.703 14.0637 67.7831 14.1659 67.8865 14.24C67.9873 14.312 68.1062 14.3546 68.2299 14.3628C68.3535 14.3711 68.477 14.3447 68.5865 14.2866L71.9998 12.5066L75.3998 14.2933C75.4934 14.3461 75.5991 14.3737 75.7065 14.3733C75.8477 14.3738 75.9854 14.3295 76.0998 14.2466C76.2033 14.1725 76.2833 14.0704 76.3306 13.9523C76.3778 13.8341 76.3903 13.705 76.3665 13.58L75.6998 9.79331L78.4532 7.12664C78.5494 7.04509 78.6206 6.93791 78.6583 6.81754C78.6961 6.69717 78.6989 6.56856 78.6665 6.44664ZM74.5665 9.11331C74.4883 9.18893 74.4298 9.28254 74.3961 9.38596C74.3624 9.48938 74.3545 9.59947 74.3732 9.70664L74.8532 12.5L72.3465 11.1666C72.25 11.1153 72.1424 11.0884 72.0332 11.0884C71.9239 11.0884 71.8163 11.1153 71.7198 11.1666L69.2132 12.5L69.6932 9.70664C69.7118 9.59947 69.7039 9.48938 69.6702 9.38596C69.6365 9.28254 69.578 9.18893 69.4998 9.11331L67.4998 7.11331L70.3065 6.70664C70.4145 6.69162 70.5172 6.65034 70.6055 6.58641C70.6938 6.52248 70.7651 6.43787 70.8132 6.33997L71.9998 3.79997L73.2532 6.34664C73.3012 6.44453 73.3725 6.52915 73.4608 6.59308C73.5492 6.657 73.6518 6.69829 73.7598 6.71331L76.5665 7.11997L74.5665 9.11331Z" fill="#FDC500"/>
</svg>
